<svg width="13" height="15" viewBox="0 0 13 15" fill="none" xmlns="http://www.w3.org/2000/svg">
<path d="M11.2653 4.32909C11.261 4.27211 11.2133 4.22803 11.1562 4.22803H9.73436C9.43232 4.22803 9.18748 3.98318 9.18748 3.68115C9.18748 1.93214 7.76451 0.509277 6.01561 0.509277C4.2667 0.509277 2.84373 1.93214 2.84373 3.68115C2.84373 3.98318 2.59889 4.22803 2.29686 4.22803H0.874985C0.817891 4.22803 0.770204 4.27211 0.765938 4.32909L0.000313585 14.3916C-0.00198329 14.4219 0.00840733 14.4519 0.0291886 14.4742C0.0498604 14.4966 0.0789541 14.5093 0.10936 14.5093H11.9219C11.9523 14.5093 11.9814 14.4966 12.002 14.4743C12.0227 14.452 12.0332 14.422 12.0309 14.3917L11.2653 4.32909ZM3.71873 3.68115C3.71873 2.4147 4.74905 1.38428 6.01561 1.38428C7.28217 1.38428 8.31248 2.4147 8.31248 3.68115C8.31248 3.98318 8.06764 4.22803 7.76561 4.22803H4.26561C3.96358 4.22803 3.71873 3.98318 3.71873 3.68115ZM3.28123 7.29053C2.67803 7.29053 2.18748 6.79987 2.18748 6.19678C2.18748 6.10342 2.19749 6.01203 2.2175 5.92436C2.3246 5.45521 2.84373 5.71556 2.84373 6.19678C2.84373 6.43806 3.04006 6.63428 3.28123 6.63428C3.52241 6.63428 3.71873 6.43806 3.71873 6.19678C3.71873 5.71588 4.2369 5.45608 4.3447 5.92474C4.36489 6.01249 4.37498 6.10379 4.37498 6.19678C4.37498 6.79987 3.88444 7.29053 3.28123 7.29053ZM8.74998 7.29053C8.14678 7.29053 7.65623 6.79987 7.65623 6.19678C7.65623 6.10342 7.66624 6.01203 7.68625 5.92436C7.79334 5.45521 8.31248 5.71556 8.31248 6.19678C8.31248 6.43806 8.50881 6.63428 8.74998 6.63428C8.99115 6.63428 9.18748 6.43806 9.18748 6.19678C9.18748 5.71588 9.70565 5.45608 9.81345 5.92474C9.83364 6.01249 9.84373 6.10379 9.84373 6.19678C9.84373 6.79987 9.35318 7.29053 8.74998 7.29053Z" fill="#241E20"/>
</svg>
