<svg width="45" height="39" viewBox="0 0 45 39" fill="none" xmlns="http://www.w3.org/2000/svg">
<rect x="0.085022" y="0.0454102" width="44" height="38" rx="8" fill="#7A7680"/>
<path d="M19.9873 11.0661L20.7174 12.3744C21.3763 13.5551 21.1119 15.1039 20.074 16.1417C20.074 16.1417 18.8154 17.4006 21.0976 19.6829C23.3791 21.9644 24.6387 20.7064 24.6387 20.7064C25.6765 19.6686 27.2253 19.4041 28.406 20.063L29.7143 20.7932C31.4972 21.7881 31.7077 24.2883 30.1407 25.8554C29.199 26.7971 28.0455 27.5298 26.7703 27.578C24.6237 27.6595 20.9781 27.1162 17.3212 23.4593C13.6643 19.8024 13.121 16.1568 13.2024 14.0102C13.2507 12.735 13.9834 11.5815 14.925 10.6398C16.4921 9.07276 18.9923 9.28332 19.9873 11.0661Z" fill="white" stroke="white"/>
</svg>
