<svg width="45" height="39" viewBox="0 0 45 39" fill="none" xmlns="http://www.w3.org/2000/svg">
<rect x="0.085022" y="0.0454102" width="44" height="38" rx="8" fill="#4CCA5A"/>
<g clip-path="url(#clip0_93_167)">
<path d="M29.685 10.8954C27.485 8.69542 24.685 7.49542 21.585 7.49542C15.285 7.49542 10.185 12.5954 10.185 18.8954C10.185 20.8954 10.685 22.8954 11.685 24.5954L10.085 30.5954L16.185 28.9954C17.885 29.8954 19.785 30.3954 21.685 30.3954C27.985 30.3954 33.085 25.2954 33.085 18.9954C33.085 15.8954 31.885 12.9954 29.685 10.8954ZM21.585 28.3954C19.885 28.3954 18.185 27.8954 16.785 27.0954L16.485 26.8954L12.885 27.7954L13.885 24.2954L13.685 23.8954C12.585 22.4954 12.085 20.6954 12.085 18.8954C12.085 13.6954 16.385 9.39542 21.585 9.39542C24.085 9.39542 26.485 10.3954 28.285 12.1954C30.085 13.9954 31.085 16.3954 31.085 18.8954C31.085 24.1954 26.885 28.3954 21.585 28.3954ZM26.785 21.2954C26.485 21.1954 25.085 20.4954 24.785 20.3954C24.485 20.2954 24.285 20.2954 24.185 20.4954C23.985 20.7954 23.485 21.3954 23.285 21.5954C23.085 21.7954 22.985 21.7954 22.685 21.6954C22.385 21.5954 21.485 21.2954 20.385 20.2954C19.585 19.4954 18.985 18.5954 18.785 18.2954C18.585 17.9954 18.785 17.8954 18.885 17.6954C19.085 17.5954 19.185 17.3954 19.385 17.1954C19.485 16.9954 19.585 16.8954 19.685 16.6954C19.785 16.4954 19.685 16.2954 19.685 16.1954C19.585 16.0954 18.985 14.6954 18.785 14.1954C18.485 13.5954 18.285 13.6954 18.085 13.6954C17.885 13.6954 17.685 13.6954 17.585 13.6954C17.385 13.6954 17.085 13.6954 16.785 13.9954C16.485 14.2954 15.785 14.9954 15.785 16.3954C15.785 17.7954 16.785 19.1954 16.985 19.3954C17.085 19.5954 18.985 22.4954 21.885 23.6954C22.585 23.9954 23.085 24.1954 23.485 24.2954C24.185 24.4954 24.785 24.4954 25.285 24.3954C25.785 24.2954 26.985 23.6954 27.185 22.9954C27.385 22.2954 27.385 21.7954 27.385 21.5954C27.285 21.4954 27.085 21.4954 26.785 21.2954Z" fill="white"/>
</g>
<defs>
<clipPath id="clip0_93_167">
<rect width="23" height="23.1" fill="white" transform="translate(10.085 7.49542)"/>
</clipPath>
</defs>
</svg>
