<svg width="155" height="45" viewBox="0 0 155 45" fill="none" xmlns="http://www.w3.org/2000/svg">
<rect x="0.761475" y="0.754639" width="154.239" height="44" rx="8" fill="#E1DACA"/>
<path d="M33.432 29.2546H31.272L24.812 22.0146V29.2546H23.012V14.9746H24.812V21.8946L31.112 14.9746H33.152L26.952 21.9146L33.432 29.2546ZM44.4553 23.8746C44.4553 24.768 44.3353 25.5613 44.0953 26.2546C43.8686 26.9346 43.5353 27.5146 43.0953 27.9946C42.6686 28.4746 42.142 28.8413 41.5153 29.0946C40.902 29.3346 40.2153 29.4546 39.4553 29.4546C38.7486 29.4546 38.0953 29.3346 37.4953 29.0946C36.8953 28.8413 36.3753 28.4746 35.9353 27.9946C35.4953 27.5146 35.1486 26.9346 34.8953 26.2546C34.6553 25.5613 34.5353 24.768 34.5353 23.8746C34.5353 22.688 34.7353 21.688 35.1353 20.8746C35.5353 20.048 36.1086 19.4213 36.8553 18.9946C37.602 18.5546 38.4886 18.3346 39.5153 18.3346C40.4886 18.3346 41.342 18.5546 42.0753 18.9946C42.822 19.4213 43.402 20.048 43.8153 20.8746C44.242 21.688 44.4553 22.688 44.4553 23.8746ZM36.3553 23.8746C36.3553 24.7146 36.462 25.448 36.6753 26.0746C36.902 26.688 37.2486 27.1613 37.7153 27.4946C38.182 27.828 38.7753 27.9946 39.4953 27.9946C40.2153 27.9946 40.8086 27.828 41.2753 27.4946C41.742 27.1613 42.082 26.688 42.2953 26.0746C42.522 25.448 42.6353 24.7146 42.6353 23.8746C42.6353 23.0213 42.522 22.2946 42.2953 21.6946C42.0686 21.0946 41.722 20.6346 41.2553 20.3146C40.802 19.9813 40.2086 19.8146 39.4753 19.8146C38.382 19.8146 37.5886 20.1746 37.0953 20.8946C36.602 21.6146 36.3553 22.608 36.3553 23.8746ZM52.3447 18.3346C53.6647 18.3346 54.7247 18.7946 55.5247 19.7146C56.338 20.6346 56.7447 22.0213 56.7447 23.8746C56.7447 25.088 56.558 26.1146 56.1847 26.9546C55.8247 27.7813 55.3113 28.408 54.6447 28.8346C53.9913 29.248 53.218 29.4546 52.3247 29.4546C51.778 29.4546 51.2913 29.3813 50.8647 29.2346C50.438 29.088 50.0713 28.9013 49.7647 28.6746C49.4713 28.4346 49.218 28.1746 49.0047 27.8946H48.8847C48.9113 28.1213 48.938 28.408 48.9647 28.7546C48.9913 29.1013 49.0047 29.4013 49.0047 29.6546V34.0546H47.2447V18.5346H48.6847L48.9247 19.9946H49.0047C49.218 19.688 49.4713 19.408 49.7647 19.1546C50.0713 18.9013 50.4313 18.7013 50.8447 18.5546C51.2713 18.408 51.7713 18.3346 52.3447 18.3346ZM52.0247 19.8146C51.3047 19.8146 50.7247 19.9546 50.2847 20.2346C49.8447 20.5013 49.5247 20.908 49.3247 21.4546C49.1247 22.0013 49.018 22.6946 49.0047 23.5346V23.8746C49.0047 24.7546 49.098 25.5013 49.2847 26.1146C49.4713 26.728 49.7847 27.1946 50.2247 27.5146C50.678 27.8346 51.2913 27.9946 52.0647 27.9946C52.718 27.9946 53.2513 27.8146 53.6647 27.4546C54.0913 27.0946 54.4047 26.608 54.6047 25.9946C54.818 25.368 54.9247 24.6546 54.9247 23.8546C54.9247 22.628 54.6847 21.648 54.2047 20.9146C53.738 20.1813 53.0113 19.8146 52.0247 19.8146ZM62.3694 18.3346C63.1827 18.3346 63.8894 18.448 64.4894 18.6746C65.0894 18.888 65.556 19.208 65.8894 19.6346C66.2227 20.048 66.3894 20.5546 66.3894 21.1546C66.3894 21.808 66.2094 22.328 65.8494 22.7146C65.4894 23.088 64.996 23.3613 64.3694 23.5346V23.6146C64.796 23.7346 65.1894 23.9013 65.5494 24.1146C65.9094 24.328 66.196 24.608 66.4094 24.9546C66.636 25.3013 66.7494 25.748 66.7494 26.2946C66.7494 26.8813 66.5827 27.4146 66.2494 27.8946C65.9294 28.3746 65.4294 28.7546 64.7494 29.0346C64.0827 29.3146 63.2227 29.4546 62.1694 29.4546C61.6627 29.4546 61.176 29.428 60.7094 29.3746C60.256 29.3213 59.8427 29.2413 59.4694 29.1346C59.1094 29.028 58.7894 28.9013 58.5094 28.7546V27.1746C58.9627 27.388 59.496 27.5813 60.1094 27.7546C60.736 27.928 61.416 28.0146 62.1494 28.0146C62.6827 28.0146 63.1627 27.9546 63.5894 27.8346C64.0294 27.7146 64.376 27.528 64.6294 27.2746C64.8827 27.008 65.0094 26.648 65.0094 26.1946C65.0094 25.7813 64.896 25.448 64.6694 25.1946C64.4427 24.928 64.1027 24.728 63.6494 24.5946C63.2094 24.4613 62.6427 24.3946 61.9494 24.3946H60.5094V22.9546H61.6694C62.5894 22.9546 63.3227 22.8346 63.8694 22.5946C64.4294 22.3413 64.7094 21.9146 64.7094 21.3146C64.7094 20.808 64.496 20.428 64.0694 20.1746C63.656 19.9213 63.056 19.7946 62.2694 19.7946C61.6827 19.7946 61.1627 19.8546 60.7094 19.9746C60.2694 20.0813 59.7827 20.248 59.2494 20.4746L58.6294 19.0746C59.2027 18.8213 59.8027 18.6346 60.4294 18.5146C61.056 18.3946 61.7027 18.3346 62.3694 18.3346ZM71.0141 25.0746C71.0141 25.1946 71.0074 25.368 70.9941 25.5946C70.9941 25.808 70.9874 26.0413 70.9741 26.2946C70.9607 26.5346 70.9474 26.768 70.9341 26.9946C70.9207 27.208 70.9074 27.3813 70.8941 27.5146L76.6341 18.5346H78.7941V29.2546H77.1541V22.9346C77.1541 22.7213 77.1541 22.4413 77.1541 22.0946C77.1674 21.748 77.1807 21.408 77.1941 21.0746C77.2074 20.728 77.2207 20.468 77.2341 20.2946L71.5341 29.2546H69.3541V18.5346H71.0141V25.0746ZM83.9656 18.5346V22.9946H89.7856V18.5346H91.5456V29.2546H89.7856V24.4746H83.9656V29.2546H82.2056V18.5346H83.9656ZM99 18.3546C100.307 18.3546 101.273 18.6413 101.9 19.2146C102.527 19.788 102.84 20.7013 102.84 21.9546V29.2546H101.56L101.22 27.7346H101.14C100.833 28.1213 100.513 28.448 100.18 28.7146C99.86 28.968 99.4867 29.1546 99.06 29.2746C98.6467 29.3946 98.14 29.4546 97.54 29.4546C96.9 29.4546 96.32 29.3413 95.8 29.1146C95.2933 28.888 94.8933 28.5413 94.6 28.0746C94.3067 27.5946 94.16 26.9946 94.16 26.2746C94.16 25.208 94.58 24.388 95.42 23.8146C96.26 23.228 97.5533 22.908 99.3 22.8546L101.12 22.7946V22.1546C101.12 21.2613 100.927 20.6413 100.54 20.2946C100.153 19.948 99.6067 19.7746 98.9 19.7746C98.34 19.7746 97.8067 19.8613 97.3 20.0346C96.7933 20.1946 96.32 20.3813 95.88 20.5946L95.34 19.2746C95.8067 19.0213 96.36 18.808 97 18.6346C97.64 18.448 98.3067 18.3546 99 18.3546ZM99.52 24.0746C98.1867 24.128 97.26 24.3413 96.74 24.7146C96.2333 25.088 95.98 25.6146 95.98 26.2946C95.98 26.8946 96.16 27.3346 96.52 27.6146C96.8933 27.8946 97.3667 28.0346 97.94 28.0346C98.8467 28.0346 99.6 27.788 100.2 27.2946C100.8 26.788 101.1 26.0146 101.1 24.9746V24.0146L99.52 24.0746Z" fill="#241E20"/>
<path d="M119.821 14.322L117.291 17.6951V29.5009C117.291 29.9482 117.469 30.3772 117.785 30.6935C118.102 31.0098 118.531 31.1875 118.978 31.1875H130.784C131.231 31.1875 131.66 31.0098 131.976 30.6935C132.292 30.3772 132.47 29.9482 132.47 29.5009V17.6951L129.94 14.322H119.821Z" stroke="#241E20" stroke-width="1.51789" stroke-linecap="round" stroke-linejoin="round"/>
<path d="M117.291 17.6951H132.47" stroke="#241E20" stroke-width="1.51789" stroke-linecap="round" stroke-linejoin="round"/>
<path d="M128.254 21.0684C128.254 21.963 127.899 22.8209 127.266 23.4535C126.634 24.0861 125.776 24.4414 124.881 24.4414C123.986 24.4414 123.129 24.0861 122.496 23.4535C121.863 22.8209 121.508 21.963 121.508 21.0684" stroke="#241E20" stroke-width="1.51789" stroke-linecap="round" stroke-linejoin="round"/>
</svg>
