<svg width="21" height="21" viewBox="0 0 21 21" fill="none" xmlns="http://www.w3.org/2000/svg">
<path d="M5.82107 2.32202L3.29126 5.69511L3.29126 17.5009C3.29126 17.9482 3.46895 18.3772 3.78524 18.6935C4.10152 19.0098 4.5305 19.1875 4.9778 19.1875H16.7836C17.2309 19.1875 17.6599 19.0098 17.9762 18.6935C18.2925 18.3772 18.4701 17.9482 18.4701 17.5009V5.69511L15.9403 2.32202L5.82107 2.32202Z" stroke="#241E20" stroke-width="1.51789" stroke-linecap="round" stroke-linejoin="round"/>
<path d="M3.29126 5.69507H18.4701" stroke="#241E20" stroke-width="1.51789" stroke-linecap="round" stroke-linejoin="round"/>
<path d="M14.2542 9.06836C14.2542 9.96296 13.8988 10.8209 13.2662 11.4535C12.6336 12.0861 11.7757 12.4414 10.8811 12.4414C9.98648 12.4414 9.12853 12.0861 8.49595 11.4535C7.86337 10.8209 7.508 9.96296 7.508 9.06836" stroke="#241E20" stroke-width="1.51789" stroke-linecap="round" stroke-linejoin="round"/>
</svg>
